<svg xmlns="http://www.w3.org/2000/svg" xmlns:xlink="http://www.w3.org/1999/xlink" width="500" zoomAndPan="magnify" viewBox="0 0 375 374.999991" height="500" preserveAspectRatio="xMidYMid meet" version="1.0"><rect x="-37.5" width="450" fill="#ffffff" y="-37.499999" height="449.999989" fill-opacity="1"/><rect x="-37.5" width="450" fill="#fdfdfd" y="-37.499999" height="449.999989" fill-opacity="1"/><path fill="#000000" d="M 354.949219 74.84375 L 375 0 L 300.15625 20.050781 L 316.984375 36.878906 L 42.839844 311.03125 C 42.839844 311.03125 44.550781 313.03125 53.199219 321.824219 C 61.851562 330.617188 63.992188 332.195312 63.992188 332.195312 L 338.121094 58.015625 Z M 163.121094 133.558594 L 179.949219 150.386719 L 200 75.550781 L 125.15625 95.597656 L 141.96875 112.417969 L 32.527344 221.882812 C 31.875 218.394531 31.34375 214.886719 30.9375 211.359375 C 30.53125 207.835938 30.25 204.296875 30.09375 200.75 C 29.9375 197.207031 29.902344 193.660156 29.996094 190.109375 C 30.089844 186.5625 30.308594 183.019531 30.648438 179.488281 C 30.992188 175.953125 31.460938 172.4375 32.050781 168.9375 C 32.640625 165.4375 33.351562 161.960938 34.1875 158.511719 C 35.023438 155.0625 35.976562 151.648438 37.054688 148.265625 C 38.128906 144.882812 39.324219 141.539062 40.636719 138.242188 C 41.945312 134.945312 43.371094 131.695312 44.914062 128.496094 C 46.453125 125.300781 48.105469 122.160156 49.867188 119.078125 C 51.628906 115.996094 53.496094 112.980469 55.46875 110.03125 C 57.445312 107.082031 59.519531 104.203125 61.695312 101.398438 C 63.875 98.597656 66.144531 95.871094 68.515625 93.230469 C 70.882812 90.585938 73.34375 88.027344 75.890625 85.558594 C 78.441406 83.089844 81.074219 80.710938 83.789062 78.425781 C 86.507812 76.140625 89.300781 73.957031 92.171875 71.867188 C 95.042969 69.78125 97.984375 67.796875 100.992188 65.914062 C 104.003906 64.035156 107.078125 62.261719 110.210938 60.597656 C 113.347656 58.933594 116.539062 57.382812 119.78125 55.945312 C 123.027344 54.503906 126.320312 53.179688 129.65625 51.972656 C 132.996094 50.765625 136.371094 49.679688 139.785156 48.710938 C 143.199219 47.738281 146.644531 46.890625 150.121094 46.164062 C 153.59375 45.4375 157.089844 44.835938 160.605469 44.355469 C 164.125 43.875 167.652344 43.519531 171.195312 43.289062 C 174.738281 43.058594 178.28125 42.949219 181.832031 42.96875 C 185.382812 42.988281 188.925781 43.132812 192.464844 43.398438 C 196.003906 43.667969 199.53125 44.058594 203.042969 44.578125 C 206.554688 45.09375 210.042969 45.734375 213.511719 46.496094 C 216.976562 47.257812 220.414062 48.144531 223.816406 49.148438 C 227.222656 50.152344 230.585938 51.277344 233.910156 52.519531 C 237.238281 53.761719 240.515625 55.117188 243.746094 56.589844 C 246.972656 58.0625 250.148438 59.648438 253.265625 61.34375 L 275.140625 39.46875 C 273.054688 38.199219 270.941406 36.972656 268.804688 35.789062 C 266.667969 34.605469 264.503906 33.464844 262.320312 32.367188 C 260.136719 31.269531 257.933594 30.21875 255.707031 29.210938 C 253.480469 28.203125 251.234375 27.242188 248.96875 26.328125 C 246.703125 25.410156 244.421875 24.539062 242.121094 23.714844 C 239.820312 22.890625 237.503906 22.117188 235.171875 21.386719 C 232.839844 20.65625 230.496094 19.972656 228.136719 19.335938 C 225.777344 18.703125 223.40625 18.113281 221.019531 17.574219 C 218.636719 17.035156 216.246094 16.546875 213.839844 16.105469 C 211.4375 15.660156 209.027344 15.269531 206.609375 14.921875 C 204.1875 14.578125 201.765625 14.285156 199.332031 14.035156 C 196.902344 13.789062 194.46875 13.59375 192.027344 13.445312 C 189.589844 13.296875 187.148438 13.199219 184.703125 13.148438 C 182.261719 13.101562 179.820312 13.101562 177.375 13.152344 C 174.933594 13.199219 172.492188 13.300781 170.054688 13.449219 C 167.613281 13.597656 165.179688 13.796875 162.746094 14.042969 C 160.316406 14.289062 157.890625 14.585938 155.472656 14.929688 C 153.054688 15.277344 150.644531 15.671875 148.238281 16.113281 C 145.835938 16.558594 143.445312 17.046875 141.0625 17.589844 C 138.679688 18.128906 136.304688 18.714844 133.945312 19.351562 C 131.585938 19.988281 129.242188 20.671875 126.910156 21.402344 C 124.578125 22.132812 122.261719 22.910156 119.964844 23.734375 C 117.664062 24.558594 115.378906 25.429688 113.117188 26.347656 C 110.851562 27.265625 108.605469 28.226562 106.378906 29.234375 C 104.152344 30.242188 101.949219 31.296875 99.765625 32.394531 C 97.582031 33.492188 95.421875 34.632812 93.285156 35.816406 C 91.148438 37 89.035156 38.226562 86.949219 39.5 C 84.859375 40.769531 82.800781 42.082031 80.765625 43.433594 C 78.730469 44.789062 76.722656 46.179688 74.746094 47.617188 C 72.769531 49.050781 70.820312 50.523438 68.902344 52.039062 C 66.984375 53.550781 65.097656 55.105469 63.242188 56.695312 C 61.386719 58.285156 59.5625 59.910156 57.773438 61.574219 C 55.984375 63.238281 54.230469 64.9375 52.507812 66.671875 C 50.789062 68.410156 49.101562 70.175781 47.453125 71.980469 C 45.804688 73.785156 44.191406 75.621094 42.617188 77.488281 C 41.042969 79.355469 39.507812 81.253906 38.007812 83.1875 C 36.511719 85.117188 35.054688 87.078125 33.636719 89.066406 C 32.214844 91.054688 30.839844 93.074219 29.5 95.117188 C 28.164062 97.164062 26.871094 99.234375 25.617188 101.332031 C 24.363281 103.429688 23.152344 105.554688 21.988281 107.699219 C 20.820312 109.847656 19.695312 112.015625 18.617188 114.210938 C 17.539062 116.402344 16.503906 118.613281 15.515625 120.847656 C 14.523438 123.082031 13.582031 125.335938 12.683594 127.609375 C 11.785156 129.882812 10.929688 132.171875 10.125 134.476562 C 9.320312 136.785156 8.5625 139.105469 7.851562 141.445312 C 7.136719 143.78125 6.472656 146.132812 5.855469 148.496094 C 5.242188 150.863281 4.671875 153.238281 4.152344 155.625 C 3.632812 158.011719 3.160156 160.410156 2.738281 162.816406 C 2.3125 165.222656 1.9375 167.636719 1.613281 170.058594 C 1.289062 172.480469 1.011719 174.90625 0.785156 177.339844 C 0.558594 179.773438 0.378906 182.210938 0.25 184.648438 C 0.121094 187.089844 0.0429688 189.53125 0.0117188 191.976562 C -0.015625 194.417969 0.00390625 196.863281 0.0703125 199.304688 C 0.140625 201.746094 0.257812 204.1875 0.425781 206.625 C 0.59375 209.0625 0.8125 211.496094 1.078125 213.925781 C 1.34375 216.351562 1.660156 218.777344 2.023438 221.191406 C 2.390625 223.609375 2.800781 226.015625 3.265625 228.414062 C 3.726562 230.816406 4.238281 233.203125 4.796875 235.582031 C 5.355469 237.960938 5.960938 240.328125 6.613281 242.683594 C 7.269531 245.035156 7.972656 247.375 8.71875 249.703125 C 9.46875 252.027344 10.265625 254.339844 11.109375 256.632812 C 11.953125 258.925781 12.839844 261.199219 13.773438 263.457031 C 14.710938 265.714844 15.691406 267.953125 16.714844 270.171875 C 17.742188 272.390625 18.8125 274.585938 19.925781 276.761719 L 42.40625 254.269531 Z M 313.628906 121.800781 C 344.796875 179.085938 336.1875 252.460938 287.777344 300.871094 C 285.617188 303.03125 283.390625 305.121094 281.101562 307.148438 C 278.816406 309.171875 276.46875 311.125 274.058594 313.007812 C 271.652344 314.890625 269.191406 316.699219 266.675781 318.433594 C 264.160156 320.164062 261.589844 321.820312 258.972656 323.398438 C 256.359375 324.976562 253.695312 326.472656 250.988281 327.886719 C 248.28125 329.304688 245.53125 330.636719 242.742188 331.882812 C 239.953125 333.132812 237.128906 334.296875 234.269531 335.375 C 231.410156 336.453125 228.519531 337.441406 225.601562 338.34375 C 222.683594 339.246094 219.738281 340.058594 216.769531 340.78125 C 213.800781 341.503906 210.8125 342.136719 207.804688 342.679688 C 204.796875 343.222656 201.777344 343.671875 198.742188 344.03125 C 195.707031 344.390625 192.667969 344.65625 189.617188 344.832031 C 186.566406 345.003906 183.511719 345.085938 180.457031 345.074219 C 177.402344 345.0625 174.347656 344.960938 171.300781 344.765625 C 168.25 344.566406 165.210938 344.277344 162.175781 343.898438 C 159.144531 343.515625 156.128906 343.042969 153.125 342.480469 L 192.667969 302.929688 L 209.503906 319.765625 L 229.554688 244.914062 L 154.703125 264.964844 L 171.539062 281.800781 L 98.257812 355.082031 C 100.429688 356.199219 102.625 357.269531 104.84375 358.292969 C 107.0625 359.320312 109.300781 360.300781 111.558594 361.234375 C 113.816406 362.167969 116.089844 363.058594 118.382812 363.902344 C 120.675781 364.742188 122.988281 365.539062 125.3125 366.289062 C 127.636719 367.039062 129.976562 367.742188 132.332031 368.394531 C 134.6875 369.050781 137.054688 369.65625 139.433594 370.214844 C 141.8125 370.773438 144.199219 371.285156 146.597656 371.746094 C 149 372.210938 151.40625 372.621094 153.824219 372.988281 C 156.238281 373.351562 158.660156 373.667969 161.089844 373.933594 C 163.519531 374.199219 165.953125 374.417969 168.390625 374.585938 C 170.828125 374.753906 173.265625 374.871094 175.710938 374.941406 C 178.152344 375.011719 180.59375 375.03125 183.039062 375 C 185.480469 374.972656 187.921875 374.890625 190.363281 374.765625 C 192.804688 374.636719 195.242188 374.457031 197.671875 374.230469 C 200.105469 374.003906 202.535156 373.726562 204.957031 373.402344 C 207.375 373.074219 209.792969 372.703125 212.199219 372.277344 C 214.605469 371.855469 217 371.382812 219.386719 370.863281 C 221.777344 370.34375 224.152344 369.773438 226.515625 369.160156 C 228.882812 368.542969 231.230469 367.878906 233.570312 367.167969 C 235.90625 366.453125 238.230469 365.695312 240.535156 364.890625 C 242.84375 364.085938 245.132812 363.234375 247.40625 362.335938 C 249.675781 361.4375 251.929688 360.492188 254.164062 359.503906 C 256.398438 358.511719 258.613281 357.480469 260.804688 356.398438 C 262.996094 355.320312 265.167969 354.199219 267.3125 353.03125 C 269.460938 351.863281 271.582031 350.652344 273.679688 349.402344 C 275.777344 348.148438 277.847656 346.855469 279.894531 345.515625 C 281.941406 344.179688 283.957031 342.800781 285.949219 341.382812 C 287.9375 339.964844 289.898438 338.507812 291.828125 337.007812 C 293.757812 335.511719 295.65625 333.976562 297.527344 332.402344 C 299.394531 330.828125 301.230469 329.214844 303.035156 327.566406 C 304.835938 325.917969 306.605469 324.230469 308.339844 322.511719 C 310.074219 320.789062 311.773438 319.035156 313.4375 317.246094 C 315.101562 315.457031 316.730469 313.632812 318.320312 311.777344 C 319.910156 309.921875 321.460938 308.035156 322.976562 306.117188 C 324.488281 304.199219 325.964844 302.253906 327.398438 300.273438 C 328.832031 298.296875 330.226562 296.289062 331.582031 294.257812 C 332.933594 292.222656 334.246094 290.160156 335.515625 288.074219 C 336.785156 285.988281 338.015625 283.875 339.199219 281.738281 C 340.382812 279.601562 341.523438 277.441406 342.621094 275.257812 C 343.71875 273.074219 344.773438 270.867188 345.78125 268.644531 C 346.789062 266.417969 347.75 264.171875 348.667969 261.90625 C 349.585938 259.640625 350.453125 257.359375 351.28125 255.058594 C 352.105469 252.757812 352.882812 250.441406 353.613281 248.113281 C 354.34375 245.78125 355.027344 243.433594 355.664062 241.074219 C 356.300781 238.714844 356.886719 236.34375 357.425781 233.960938 C 357.96875 231.578125 358.457031 229.1875 358.902344 226.78125 C 359.34375 224.378906 359.738281 221.96875 360.085938 219.550781 C 360.429688 217.132812 360.726562 214.707031 360.972656 212.273438 C 361.21875 209.84375 361.417969 207.410156 361.566406 204.96875 C 361.714844 202.53125 361.816406 200.089844 361.863281 197.648438 C 361.914062 195.203125 361.914062 192.761719 361.867188 190.320312 C 361.816406 187.875 361.71875 185.433594 361.570312 182.996094 C 361.421875 180.554688 361.226562 178.121094 360.980469 175.691406 C 360.734375 173.257812 360.4375 170.835938 360.09375 168.414062 C 359.75 165.996094 359.355469 163.585938 358.914062 161.183594 C 358.46875 158.777344 357.980469 156.386719 357.441406 154.003906 C 356.902344 151.621094 356.3125 149.246094 355.679688 146.886719 C 355.042969 144.527344 354.359375 142.183594 353.632812 139.851562 C 352.902344 137.519531 352.125 135.203125 351.300781 132.902344 C 350.476562 130.601562 349.605469 128.320312 348.691406 126.054688 C 347.773438 123.789062 346.8125 121.542969 345.804688 119.316406 C 344.796875 117.089844 343.746094 114.886719 342.648438 112.703125 C 341.550781 110.519531 340.414062 108.359375 339.226562 106.222656 C 338.042969 104.082031 336.816406 101.972656 335.546875 99.882812 Z M 313.628906 121.800781 " fill-opacity="1" fill-rule="nonzero"/></svg>